<?xml version="1.0" encoding="UTF-8"?>
<svg width="200px" height="100px" viewBox="0 0 200 100" version="1.1" xmlns="http://www.w3.org/2000/svg" xmlns:xlink="http://www.w3.org/1999/xlink">
    <title>Sponsor Placeholder</title>
    <g stroke="none" stroke-width="1" fill="none" fill-rule="evenodd">
        <g transform="translate(10.000000, 10.000000)" fill="#FFFFFF" fill-rule="nonzero">
            <rect stroke="#FFFFFF" stroke-width="2" opacity="0.5" x="0" y="0" width="180" height="80" rx="8"></rect>
            <path d="M42.336,53.248 L42.336,41.4 L46.224,41.4 L46.224,53.248 L42.336,53.248 Z M44.28,39.372 C43.8,39.372 43.38,39.204 43.02,38.868 C42.66,38.532 42.48,38.112 42.48,37.608 C42.48,37.128 42.66,36.72 43.02,36.384 C43.38,36.048 43.8,35.88 44.28,35.88 C44.784,35.88 45.204,36.048 45.54,36.384 C45.9,36.72 46.08,37.128 46.08,37.608 C46.08,38.112 45.9,38.532 45.54,38.868 C45.204,39.204 44.784,39.372 44.28,39.372 Z M56.484,53.248 L56.484,46.848 C56.484,45.816 56.268,45.024 55.836,44.472 C55.404,43.896 54.768,43.608 53.928,43.608 C53.424,43.608 52.98,43.728 52.596,43.968 C52.212,44.184 51.912,44.508 51.696,44.94 C51.48,45.348 51.372,45.84 51.372,46.416 L51.372,53.248 L47.52,53.248 L47.52,41.4 L51.264,41.4 L51.264,42.936 C51.672,42.36 52.2,41.916 52.848,41.604 C53.496,41.268 54.24,41.1 55.08,41.1 C56.112,41.1 57,41.352 57.744,41.856 C58.488,42.36 59.052,43.02 59.436,43.836 C59.844,44.628 60.048,45.504 60.048,46.452 L60.048,53.248 L56.484,53.248 Z M67.38,53.5 C66.252,53.5 65.244,53.248 64.356,52.744 C63.468,52.24 62.772,51.532 62.268,50.62 C61.764,49.708 61.512,48.676 61.512,47.524 C61.512,46.372 61.764,45.34 62.268,44.428 C62.772,43.516 63.468,42.808 64.356,42.304 C65.244,41.8 66.252,41.548 67.38,41.548 C68.508,41.548 69.516,41.8 70.404,42.304 C71.292,42.808 71.988,43.516 72.492,44.428 C72.996,45.34 73.248,46.372 73.248,47.524 C73.248,48.676 72.996,49.708 72.492,50.62 C71.988,51.532 71.292,52.24 70.404,52.744 C69.516,53.248 68.508,53.5 67.38,53.5 Z M67.38,50.152 C68.196,50.152 68.856,49.864 69.36,49.288 C69.888,48.712 70.152,48.004 70.152,47.164 C70.152,46.3 69.888,45.592 69.36,45.04 C68.856,44.464 68.196,44.176 67.38,44.176 C66.564,44.176 65.892,44.464 65.364,45.04 C64.86,45.592 64.608,46.3 64.608,47.164 C64.608,48.028 64.86,48.736 65.364,49.288 C65.892,49.864 66.564,50.152 67.38,50.152 Z M79.188,53.5 C78.18,53.5 77.292,53.308 76.524,52.924 C75.756,52.54 75.144,52.012 74.688,51.34 C74.256,50.668 74.004,49.9 73.932,49.036 L77.004,49.036 C77.052,49.468 77.256,49.84 77.616,50.152 C78,50.44 78.468,50.584 79.02,50.584 C79.476,50.584 79.824,50.488 80.064,50.296 C80.328,50.104 80.46,49.864 80.46,49.576 C80.46,49.192 80.268,48.928 79.884,48.784 C79.5,48.616 78.876,48.448 78.012,48.28 C77.196,48.112 76.5,47.932 75.924,47.74 C75.372,47.548 74.892,47.236 74.484,46.804 C74.076,46.372 73.872,45.772 73.872,45.004 C73.872,44.38 74.064,43.816 74.448,43.308 C74.832,42.8 75.384,42.4 76.104,42.1 C76.824,41.8 77.676,41.65 78.66,41.65 C80.076,41.65 81.2,42.016 82.032,42.748 C82.864,43.456 83.34,44.416 83.46,45.628 L80.604,45.628 C80.532,45.196 80.34,44.848 80.028,44.584 C79.716,44.32 79.296,44.188 78.768,44.188 C78.336,44.188 78.012,44.272 77.796,44.44 C77.58,44.608 77.472,44.836 77.472,45.124 C77.472,45.532 77.664,45.832 78.048,46.024 C78.432,46.192 79.044,46.372 79.884,46.564 C80.724,46.756 81.42,46.948 81.972,47.14 C82.524,47.332 83.004,47.668 83.412,48.148 C83.844,48.604 84.072,49.24 84.096,50.056 C84.096,50.68 83.904,51.256 83.52,51.784 C83.136,52.288 82.572,52.696 81.828,53.008 C81.108,53.336 80.22,53.5 79.188,53.5 Z M89.07,53.5 C88.134,53.5 87.33,53.32 86.658,52.96 C85.986,52.6 85.47,52.108 85.11,51.484 C84.75,50.86 84.57,50.14 84.57,49.324 L84.57,43.968 L82.362,43.968 L82.362,41.4 L84.57,41.4 L84.57,37.968 L88.422,37.968 L88.422,41.4 L91.494,41.4 L91.494,43.968 L88.422,43.968 L88.422,49.288 C88.422,49.696 88.53,50.02 88.746,50.26 C88.986,50.5 89.31,50.62 89.718,50.62 L91.35,50.62 L91.35,53.248 L89.07,53.5 Z M97.863,53.5 C96.735,53.5 95.727,53.248 94.839,52.744 C93.951,52.24 93.255,51.532 92.751,50.62 C92.247,49.708 91.995,48.676 91.995,47.524 C91.995,46.372 92.247,45.34 92.751,44.428 C93.255,43.516 93.951,42.808 94.839,42.304 C95.727,41.8 96.735,41.548 97.863,41.548 C98.991,41.548 99.999,41.8 100.887,42.304 C101.775,42.808 102.471,43.516 102.975,44.428 C103.479,45.34 103.731,46.372 103.731,47.524 C103.731,48.676 103.479,49.708 102.975,50.62 C102.471,51.532 101.775,52.24 100.887,52.744 C99.999,53.248 98.991,53.5 97.863,53.5 Z M97.863,50.152 C98.679,50.152 99.339,49.864 99.843,49.288 C100.371,48.712 100.635,48.004 100.635,47.164 C100.635,46.3 100.371,45.592 99.843,45.04 C99.339,44.464 98.679,44.176 97.863,44.176 C97.047,44.176 96.375,44.464 95.847,45.04 C95.343,45.592 95.091,46.3 95.091,47.164 C95.091,48.028 95.343,48.736 95.847,49.288 C96.375,49.864 97.047,50.152 97.863,50.152 Z M111.483,53.5 C110.235,53.5 109.131,53.236 108.171,52.708 C107.211,52.18 106.467,51.46 105.939,50.548 C105.411,49.636 105.147,48.604 105.147,47.452 C105.147,46.3 105.411,45.268 105.939,44.356 C106.491,43.444 107.247,42.736 108.207,42.232 C109.167,41.704 110.259,41.44 111.483,41.44 C112.563,41.44 113.535,41.668 114.399,42.124 C115.263,42.556 115.967,43.192 116.511,44.032 C117.055,44.848 117.343,45.832 117.375,46.984 L113.955,46.984 C113.883,46.36 113.667,45.868 113.307,45.508 C112.971,45.124 112.515,44.932 111.939,44.932 C111.027,44.932 110.343,45.244 109.887,45.868 C109.431,46.468 109.203,47.308 109.203,48.388 C109.203,49.444 109.431,50.272 109.887,50.872 C110.343,51.448 111.027,51.736 111.939,51.736 C112.995,51.736 113.715,51.22 114.099,50.188 L117.339,50.188 C117.051,51.388 116.411,52.36 115.419,53.104 C114.427,53.368 113.091,53.5 111.483,53.5 Z M123.849,53.5 C122.721,53.5 121.713,53.248 120.825,52.744 C119.937,52.24 119.241,51.532 118.737,50.62 C118.233,49.708 117.981,48.676 117.981,47.524 C117.981,46.372 118.233,45.34 118.737,44.428 C119.241,43.516 119.937,42.808 120.825,42.304 C121.713,41.8 122.721,41.548 123.849,41.548 C124.977,41.548 125.985,41.8 126.873,42.304 C127.761,42.808 128.457,43.516 128.961,44.428 C129.465,45.34 129.717,46.372 129.717,47.524 C129.717,48.676 129.465,49.708 128.961,50.62 C128.457,51.532 127.761,52.24 126.873,52.744 C125.985,53.248 124.977,53.5 123.849,53.5 Z M123.849,50.152 C124.665,50.152 125.325,49.864 125.829,49.288 C126.357,48.712 126.621,48.004 126.621,47.164 C126.621,46.3 126.357,45.592 125.829,45.04 C125.325,44.464 124.665,44.176 123.849,44.176 C123.033,44.176 122.361,44.464 121.833,45.04 C121.329,45.592 121.077,46.3 121.077,47.164 C121.077,48.028 121.329,48.736 121.833,49.288 C122.361,49.864 123.033,50.152 123.849,50.152 Z M137.973,53.248 L137.973,51.76 C137.661,52.336 137.181,52.792 136.533,53.128 C135.909,53.44 135.213,53.596 134.445,53.596 C133.365,53.596 132.405,53.344 131.565,52.84 C130.725,52.312 130.065,51.592 129.585,50.68 C129.129,49.768 128.901,48.736 128.901,47.584 C128.901,46.432 129.129,45.4 129.585,44.488 C130.065,43.576 130.725,42.868 131.565,42.364 C132.405,41.86 133.365,41.608 134.445,41.608 C135.213,41.608 135.909,41.764 136.533,42.076 C137.181,42.388 137.661,42.832 137.973,43.408 L137.973,41.4 L141.717,41.4 L141.717,53.248 L137.973,53.248 Z M135.309,50.512 C136.125,50.512 136.797,50.224 137.325,49.648 C137.877,49.072 138.153,48.352 138.153,47.488 C138.153,46.624 137.877,45.904 137.325,45.328 C136.797,44.752 136.125,44.464 135.309,44.464 C134.493,44.464 133.809,44.752 133.257,45.328 C132.729,45.904 132.465,46.624 132.465,47.488 C132.465,48.352 132.729,49.072 133.257,49.648 C133.809,50.224 134.493,50.512 135.309,50.512 Z"></path>
        </g>
    </g>
</svg> 